<svg xmlns="http://www.w3.org/2000/svg" viewBox="0 0 512 512" xml:space="preserve"><path style="fill:#fff" d="M4 462.4V113.6h504v303.856c-.016 24.808-20.112 44.92-44.92 44.944H4z"/><path style="fill:#aac1ce" d="M504 117.6v299.856c-.016 22.6-18.32 40.92-40.92 40.944H8V117.6h496m8-8H0v356.8h463.08c27.016 0 48.92-21.904 48.92-48.92V109.6z"/><path style="fill:#25b6d2" d="M31.92 45.6h448.16c17.632 0 31.92 14.288 31.92 31.92v32.208H0V77.544C-.016 59.912 14.264 45.616 31.896 45.6h.024z"/><g style="opacity:.7"><circle style="fill:#fff" cx="44.192" cy="77.68" r="8.928"/></g><g style="opacity:.7"><circle style="fill:#fff" cx="70.968" cy="77.68" r="8.928"/></g><g style="opacity:.7"><circle style="fill:#fff" cx="97.736" cy="77.68" r="8.928"/></g><path style="fill:#fff" d="M460.928 93.36h-317.84l16-31.352h301.84z"/><path style="fill:#415e72" d="m171.92 71.408 1.312 5.696c.28 1.336.56 2.704.8 4.072h.048c.256-1.368.672-2.76 1.032-4.048l1.6-5.72h2.576l1.6 5.6c.384 1.464.72 2.832 1 4.192h.056c.2-1.368.496-2.736.8-4.192l1.392-5.6h3.112l-3.936 12.544h-2.936l-1.496-5.104a39.834 39.834 0 0 1-.952-4h-.056a32.664 32.664 0 0 1-.952 4l-1.6 5.104h-2.96l-3.712-12.544h3.272zM192.272 71.408l1.312 5.696c.28 1.336.56 2.704.8 4.072h.016c.248-1.368.664-2.76 1.024-4.048l1.6-5.72h2.576l1.6 5.6c.384 1.464.72 2.832 1 4.192h.056c.2-1.368.496-2.736.8-4.192l1.392-5.6h3.12l-3.944 12.544h-2.936l-1.496-5.104a39.834 39.834 0 0 1-.952-4 32.664 32.664 0 0 1-.952 4l-1.6 5.104h-2.96l-3.712-12.544h3.256zM212.624 71.408l1.312 5.696c.28 1.336.56 2.704.8 4.072h.048c.256-1.368.672-2.76 1.032-4.048l1.6-5.72H220l1.6 5.6c.384 1.464.72 2.832 1 4.192h.056c.2-1.368.496-2.736.8-4.192l1.392-5.6H228l-4 12.544h-2.936l-1.496-5.104a39.834 39.834 0 0 1-.952-4h-.056a32.664 32.664 0 0 1-.952 4l-1.6 5.104h-2.96l-3.712-12.544h3.288zM229.136 82.208a1.945 1.945 0 0 1 1.832-2.04h.128a2.045 2.045 0 0 1 1.912 2.16 2.05 2.05 0 0 1-1.912 1.912 1.93 1.93 0 0 1-1.96-2.032zM422.824 75.672h21.56v4h-21.56z"/><path style="fill:#415e72" d="m438.24 88.6-2.824-2.832 8.08-8.096-8.08-8.08 2.824-2.832 10.92 10.912zM105.416 206.44h301.168v197.864H105.416z"/><path style="fill:#e04f5f" d="M105.416 171.696h301.168v34.752H105.416z"/><path style="fill:#25b6d2" d="M206.104 337.92h99.792v34.752h-99.792z"/><g><path style="fill:#fff" d="M159.312 281.76h193.36v34.752h-193.36zM159.312 235.984h193.36v34.752h-193.36z"/></g><g><circle style="fill:#aec4ce" cx="179.488" cy="299.12" r="4.632"/><circle style="fill:#aec4ce" cx="196.28" cy="299.12" r="4.632"/><circle style="fill:#aec4ce" cx="213.08" cy="299.12" r="4.632"/><circle style="fill:#aec4ce" cx="229.872" cy="299.12" r="4.632"/><circle style="fill:#aec4ce" cx="246.672" cy="299.12" r="4.632"/><circle style="fill:#aec4ce" cx="263.464" cy="299.12" r="4.632"/></g><g><path style="fill:#fff" d="M227.832 359.744a6.02 6.02 0 0 0 3.048.856c1.736 0 2.752-.912 2.752-2.24s-.704-1.936-2.48-2.624c-2.152-.76-3.48-1.872-3.48-3.728a3.784 3.784 0 0 1 3.968-3.592l.288.024a6.032 6.032 0 0 1 2.912.64l-.472 1.392a5.32 5.32 0 0 0-2.496-.624c-1.8 0-2.488 1.072-2.488 1.968 0 1.232.8 1.832 2.616 2.536 2.224.856 3.36 1.928 3.36 3.864s-1.504 3.792-4.608 3.792a6.83 6.83 0 0 1-3.36-.8l.44-1.464zM245.544 359.2c0 .976 0 1.832.08 2.576h-1.52l-.104-1.544a3.561 3.561 0 0 1-3.128 1.768c-1.488 0-3.264-.8-3.264-4.144v-5.528h1.72v5.272c0 1.8.544 3.008 2.112 3.008a2.488 2.488 0 0 0 2.264-1.6c.104-.28.16-.576.16-.88v-5.8h1.72l-.04 6.872zM248.328 361.816c0-.64.08-1.6.08-2.4v-11.472h1.696v5.936a3.542 3.542 0 0 1 3.2-1.744 4.24 4.24 0 0 1 4 4.8 4.49 4.49 0 0 1-3.888 5.032c-.112.016-.232.024-.344.032a3.364 3.364 0 0 1-3.2-1.784h-.056l-.08 1.6h-1.408zm1.776-3.792c.008.208.032.416.08.624a2.653 2.653 0 0 0 2.576 2.008c1.8 0 2.864-1.464 2.864-3.624 0-1.896-.968-3.512-2.816-3.512a2.715 2.715 0 0 0-2.608 2.112 2.995 2.995 0 0 0-.104.704l.008 1.688zM259.512 354.928c0-.984 0-1.784-.08-2.56h1.504l.08 1.52h.056a3.263 3.263 0 0 1 2.968-1.744 2.792 2.792 0 0 1 2.68 1.896c.264-.48.624-.896 1.056-1.224a3.196 3.196 0 0 1 2.096-.672c1.248 0 3.104.8 3.104 4.112v5.6h-1.68v-5.352c0-1.824-.664-2.912-2.048-2.912a2.216 2.216 0 0 0-2.032 1.6c-.088.28-.144.568-.144.856v5.84h-1.68v-5.664c0-1.504-.664-2.6-1.968-2.6a2.349 2.349 0 0 0-2.136 1.72 2.314 2.314 0 0 0-.136.84v5.704h-1.688l.048-6.96zM277.728 349.704c.032.552-.4 1.032-.952 1.056h-.144a1.02 1.02 0 0 1-1.032-1.016v-.04a1.052 1.052 0 0 1 1.016-1.08h.064a1.018 1.018 0 0 1 1.048.984v.096zm-1.904 12.112v-9.456h1.72v9.456h-1.72zM282.464 349.64v2.72h2.456v1.312h-2.456v5.096c0 1.168.328 1.832 1.28 1.832a3.53 3.53 0 0 0 1-.12l.08 1.288c-.488.168-1 .248-1.52.232a2.412 2.412 0 0 1-1.848-.728 3.466 3.466 0 0 1-.672-2.456v-5.16h-1.464v-1.312h1.48v-2.264l1.664-.44z"/></g><g><path style="fill:#aec4ce" d="M175.008 260.168V247h1.856l4.216 6.664c.88 1.368 1.672 2.8 2.36 4.272-.16-1.752-.192-3.36-.192-5.408v-5.504h1.6v13.168H183.2l-4.176-6.68a40.903 40.903 0 0 1-2.464-4.4h-.056c.096 1.664.136 3.24.136 5.432v5.6l-1.632.024zM193.04 260.168l-.136-1.184h-.064a3.522 3.522 0 0 1-2.888 1.408 2.69 2.69 0 0 1-2.88-2.496c-.008-.072-.008-.152-.008-.224 0-2.28 2.032-3.528 5.688-3.512v-.192a1.954 1.954 0 0 0-1.696-2.184 1.74 1.74 0 0 0-.456 0 4.71 4.71 0 0 0-2.464.704l-.392-1.136a5.878 5.878 0 0 1 3.104-.84c2.888 0 3.592 1.976 3.592 3.872v3.528c-.008.76.04 1.512.16 2.264l-1.56-.008zm-.248-4.8c-1.872 0-4 .296-4 2.136a1.523 1.523 0 0 0 1.392 1.64.904.904 0 0 0 .208 0 2.344 2.344 0 0 0 2.28-1.6 1.6 1.6 0 0 0 .104-.544l.016-1.632zM197.224 253.28c0-.984 0-1.784-.08-2.56h1.504l.08 1.52h.064a3.263 3.263 0 0 1 2.968-1.744 2.782 2.782 0 0 1 2.672 1.896c.264-.48.624-.896 1.056-1.224a3.196 3.196 0 0 1 2.096-.672c1.248 0 3.104.8 3.104 4.112v5.6h-1.68v-5.352c0-1.824-.664-2.912-2.048-2.912a2.226 2.226 0 0 0-2.032 1.6c-.088.28-.144.568-.144.856v5.84h-1.68v-5.664c0-1.504-.664-2.6-1.968-2.6a2.349 2.349 0 0 0-2.136 1.72 2.498 2.498 0 0 0-.136.84v5.704h-1.68l.04-6.96zM214.472 255.752a3.045 3.045 0 0 0 2.784 3.28c.152.016.312.016.464 0a5.97 5.97 0 0 0 2.608-.496l.296 1.232a7.552 7.552 0 0 1-3.144.584 4.383 4.383 0 0 1-4.664-4.096 5.17 5.17 0 0 1 .008-.704 4.602 4.602 0 0 1 4.44-5.104 4.002 4.002 0 0 1 3.904 4.456c0 .264-.024.536-.064.8l-6.632.048zm5.048-1.224a2.455 2.455 0 0 0-2.4-2.8 2.85 2.85 0 0 0-2.632 2.8h5.032z"/></g><path style="fill:#25b6d2" d="M206.104 359.904v-21.992h21.992z"/></svg>