<svg width="800" height="800" viewBox="0 0 64 64" xml:space="preserve" xmlns="http://www.w3.org/2000/svg"><path d="M106 9h49v6h-49z" style="fill:#3e4f59;fill-opacity:1;fill-rule:evenodd;stroke-width:2;stroke-linecap:round;stroke-linejoin:round;stroke-miterlimit:4.1" transform="translate(-96)"/><path d="M106 15h49v40h-49z" style="fill:#353535;fill-opacity:1;fill-rule:evenodd;stroke-width:2.00001;stroke-linecap:round;stroke-linejoin:round;stroke-miterlimit:4.1" transform="translate(-96)"/><path d="M106 15v40h29.77a28.484 41.393 35.6 0 0 18.625-40z" style="fill:#303030;fill-opacity:1;fill-rule:evenodd;stroke:none;stroke-width:2.00002;stroke-linecap:round;stroke-linejoin:round;stroke-miterlimit:4.1" transform="translate(-96)"/><path d="M144 34.825c0 7.18-5.82 13-13 13s-13-5.82-13-13 5.82-13 13-13 13 5.82 13 13z" style="fill:#eee;fill-opacity:1;fill-rule:evenodd;stroke:none;stroke-width:1.99999;stroke-linecap:round;stroke-linejoin:round;stroke-miterlimit:4.1" transform="translate(-96)"/><path d="M108 8c-1.645 0-3 1.355-3 3v40a1 1 0 0 0 2 0V11c0-.564.436-1 1-1h45c.564 0 1 .436 1 1v3h-42a1 1 0 0 0 0 2h42v37c0 .564-.436 1-1 1h-49a1 1 0 0 0 0 2h49c1.645 0 3-1.355 3-3V11c0-1.645-1.355-3-3-3z" style="color:#000;fill:#000;fill-rule:evenodd;stroke-linecap:round;stroke-linejoin:round;stroke-miterlimit:4.1" transform="translate(-96)"/><path d="M151 11a1 1 0 1 0 0 2 1 1 0 0 0 0-2z" style="color:#000;fill:#ed7161;fill-opacity:1;fill-rule:evenodd;stroke-linecap:round;stroke-linejoin:round;stroke-miterlimit:4.1;-inkscape-stroke:none" transform="translate(-96)"/><path d="M147 11a1 1 0 1 0 0 2 1 1 0 0 0 0-2z" style="color:#000;fill:#ecba16;fill-opacity:1;fill-rule:evenodd;stroke-linecap:round;stroke-linejoin:round;stroke-miterlimit:4.1;-inkscape-stroke:none" transform="translate(-96)"/><path d="M143 11a1 1 0 1 0 0 2 1 1 0 0 0 0-2z" style="color:#000;fill:#42b05c;fill-opacity:1;fill-rule:evenodd;stroke-linecap:round;stroke-linejoin:round;stroke-miterlimit:4.1;-inkscape-stroke:none" transform="translate(-96)"/><path d="M101 54a1 1 0 0 0-1 1 1 1 0 0 0 1 1 1 1 0 0 0 1-1 1 1 0 0 0-1-1zM109 14a1 1 0 1 0 0 2 1 1 0 0 0 0-2z" style="color:#000;fill:#000;fill-rule:evenodd;stroke-linecap:round;stroke-linejoin:round;stroke-miterlimit:4.1;-inkscape-stroke:none" transform="translate(-96)"/><path d="M131 21.824c-7.18 0-13 5.82-13 13 0 6.337 4.535 11.612 10.535 12.764 6.58-2.347 11.29-8.629 11.29-16.014 0-2.78-.672-5.403-1.856-7.72a12.932 12.932 0 0 0-6.969-2.03z" style="fill:#fff;fill-opacity:1;fill-rule:evenodd;stroke:none;stroke-width:1.99998;stroke-linecap:round;stroke-linejoin:round;stroke-miterlimit:4.1" transform="translate(-96)"/><path d="M133 41.825a2 2 0 0 1-2 2 2 2 0 0 1-2-2 2 2 0 0 1 2-2 2 2 0 0 1 2 2z" style="color:#000;fill:#ff8800;fill-opacity:1;fill-rule:evenodd;stroke-width:2;stroke-linecap:round;stroke-linejoin:round;stroke-miterlimit:4.1;-inkscape-stroke:none" transform="translate(-96)"/><path d="M131 38.824c-1.645 0-3 1.355-3 3s1.355 3 3 3 3-1.355 3-3-1.355-3-3-3zm0 2c.564 0 1 .436 1 1 0 .564-.436 1-1 1-.564 0-1-.436-1-1 0-.564.436-1 1-1z" style="color:#000;fill:#000;fill-rule:evenodd;stroke-linecap:round;stroke-linejoin:round;stroke-miterlimit:4.1;-inkscape-stroke:none" transform="translate(-96)"/><path d="M133 31.575a2 5.25 0 0 1-2 5.25 2 5.25 0 0 1-2-5.25 2 5.25 0 0 1 2-5.25 2 5.25 0 0 1 2 5.25z" style="fill:#ff8800;fill-opacity:1;fill-rule:evenodd;stroke:none;stroke-width:2;stroke-linecap:round;stroke-linejoin:round;stroke-miterlimit:4.1" transform="translate(-96)"/><path d="M131 20.824c-7.72 0-14 6.28-14 14a1 1 0 0 0 1 1 1 1 0 0 0 1-1c0-6.639 5.36-12 12-12a11.95 11.95 0 0 1 8.535 3.567 1 1 0 0 0 1.414.007 1 1 0 0 0 .01-1.414 13.973 13.973 0 0 0-9.959-4.16zm11.102 7.158a1 1 0 0 0-.43 1.348A11.934 11.934 0 0 1 143 34.824c0 6.64-5.36 12-12 12-5.243 0-9.686-3.352-11.326-8.021a1 1 0 0 0-1.274-.612 1 1 0 0 0-.613 1.274c1.916 5.454 7.117 9.36 13.213 9.36 7.72 0 14-6.28 14-14 0-2.308-.56-4.492-1.55-6.413a1 1 0 0 0-1.348-.43z" style="color:#000;fill:#000;fill-opacity:1;fill-rule:evenodd;stroke-linecap:round;stroke-linejoin:round;stroke-miterlimit:4.1;-inkscape-stroke:none" transform="translate(-96)"/><path d="M131 25.324c-.63 0-1.161.344-1.521.744-.361.4-.618.884-.829 1.438-.422 1.108-.65 2.516-.65 4.068 0 1.553.228 2.96.65 4.069.211.554.468 1.039.829 1.439.36.4.89.742 1.521.742.63 0 1.161-.342 1.521-.742.361-.4.618-.885.829-1.44.422-1.108.65-2.515.65-4.068a1 1 0 0 0-1-1 1 1 0 0 0-1 1c0 1.347-.218 2.566-.52 3.358-.15.396-.327.68-.445.81-.118.131-.114.082-.035.082.078 0 .083.05-.035-.082-.118-.13-.295-.414-.446-.81-.301-.792-.519-2.011-.519-3.358s.218-2.563.52-3.355c.15-.396.327-.682.445-.813.118-.13.114-.082.035-.082-.088 0-.069-.051.078.133.147.184.344.556.502 1.05a1 1 0 0 0 1.258.65 1 1 0 0 0 .648-1.257c-.209-.654-.47-1.223-.843-1.691-.374-.468-.94-.885-1.643-.885z" style="color:#000;fill:#000;fill-rule:evenodd;stroke-linecap:round;stroke-linejoin:round;stroke-miterlimit:4.1;-inkscape-stroke:none" transform="translate(-96)"/></svg>