<svg viewBox="0 0 64 64" xmlns="http://www.w3.org/2000/svg"><path fill="#000" d="m45 17-13 8-13-8V3h26v14z"/><path fill="#dd051d" d="M40 3v17.08L32 25l-8-4.92V3h16z"/><path d="m32 25 6.49-4a21.36 21.36 0 0 0-13 0z" fill="#a60416"/><circle cx="32" cy="41.5" fill="#fccd1d" r="19.5"/><circle cx="32" cy="41.5" fill="#f9a215" r="14.5"/><path d="m33.37 34 1.52 2.63a1.54 1.54 0 0 0 1.06.76L39 38a1.53 1.53 0 0 1 .85 2.56l-2.1 2.22a1.5 1.5 0 0 0-.4 1.22l.36 3a1.57 1.57 0 0 1-2.22 1.58l-2.81-1.27a1.6 1.6 0 0 0-1.32 0l-2.81 1.27A1.57 1.57 0 0 1 26.31 47l.36-3a1.5 1.5 0 0 0-.4-1.22l-2.1-2.22A1.53 1.53 0 0 1 25 38l3-.59a1.54 1.54 0 0 0 1.06-.76L30.63 34a1.59 1.59 0 0 1 2.74 0z" fill="#fccd1d"/></svg>