<?xml version="1.0" encoding="iso-8859-1"?>
<!-- Uploaded to: SVG Repo, www.svgrepo.com, Generator: SVG Repo Mixer Tools -->
<svg fill="#ff8800" version="1.1" id="Layer_1" xmlns="http://www.w3.org/2000/svg" xmlns:xlink="http://www.w3.org/1999/xlink" 
	 viewBox="0 0 512 512" xml:space="preserve">
<g>
	<g>
		<path d="M207.82,364.737c-2.126,2.125-4.913,3.188-7.698,3.188c-2.785,0-5.572-1.063-7.698-3.188l-45.16-45.16
			c-4.251-4.252-4.251-11.144,0-15.397l56.264-56.264L14.462,304.867c-14.705,4.429-19.362,22.947-8.503,33.806l167.368,167.368
			c10.86,10.86,29.377,6.202,33.806-8.503l56.95-189.064L207.82,364.737z M153.953,403.206c-11.797,11.797-30.925,11.797-42.724,0
			c-11.797-11.797-11.797-30.926,0-42.724s30.925-11.797,42.724,0C165.752,372.281,165.752,391.409,153.953,403.206z"/>
	</g>
</g>
<g>
	<g>
		<path d="M506.159,18.035L493.965,5.841c-8.482-8.482-22.48-7.611-29.844,1.859l-39.107,50.281l29.004,29.004l50.282-39.106
			C513.77,40.515,514.641,26.517,506.159,18.035z"/>
	</g>
</g>
<g>
	<g>
		
			<rect x="135.762" y="186.272" transform="matrix(0.7071 -0.7071 0.7071 0.7071 -57.3578 276.1584)" width="337.824" height="42.089"/>
	</g>
</g>
</svg>