<svg xmlns="http://www.w3.org/2000/svg" viewBox="0 0 512 512" xml:space="preserve"><path style="fill:#27467a" d="M62.638 144.994h43.574v44.664H62.638z"/><path style="fill:#111449" d="M405.787 144.994h43.574v44.664h-43.574z"/><path style="fill:#b7d9dd" d="M416.681 8.17v278.986h-65.362L384 8.17z"/><path style="fill:#c7e7eb" d="M95.319 8.17H384v278.986H95.319z"/><path style="fill:#e02e00" d="m438.468 221.794-30.11 282.036h32.681c16.635 0 30.11-13.475 30.11-30.11V221.794h-32.681z"/><path style="fill:#ff4719" d="M354.021 221.794c0 24.064-19.51 43.574-43.574 43.574H201.554c-24.064 0-43.574-19.51-43.574-43.574H40.851V473.72c0 16.635 13.475 30.11 30.11 30.11h337.397c16.635 0 30.11-13.475 30.11-30.11V221.794h-84.447z"/><path style="fill:#ffdb8a" d="M329.532 427.574v32.681h-21.787l-21.788-16.34 21.788-16.341z"/><path style="fill:#fff" d="m204.255 427.574 21.788 16.341-21.788 16.34h-21.787v-32.681z"/><path style="fill:#ffeab5" d="M204.255 427.574h103.489v32.681H204.255z"/><path d="M108.936 329.532a8.17 8.17 0 0 0 8.17 8.17h277.787a8.17 8.17 0 0 0 8.17-8.17 8.17 8.17 0 0 0-8.17-8.17H117.106a8.17 8.17 0 0 0-8.17 8.17zM76.255 362.213a8.17 8.17 0 0 0 8.17 8.17h343.149a8.17 8.17 0 0 0 8.17-8.17 8.17 8.17 0 0 0-8.17-8.17H84.426a8.17 8.17 0 0 0-8.171 8.17zM394.894 386.723H117.106a8.17 8.17 0 0 0-8.17 8.17 8.17 8.17 0 0 0 8.17 8.17h277.787a8.17 8.17 0 0 0 8.17-8.17 8.168 8.168 0 0 0-8.169-8.17zM329.532 419.404H182.468a8.17 8.17 0 0 0-8.17 8.17v32.681a8.17 8.17 0 0 0 8.17 8.17h147.064a8.17 8.17 0 0 0 8.17-8.17v-32.681a8.17 8.17 0 0 0-8.17-8.17zm-8.17 32.681H190.638v-16.34h130.723v16.34z"/><path d="M471.149 213.619H354.021a8.17 8.17 0 0 0-8.17 8.17c0 19.521-15.882 35.404-35.404 35.404H201.554c-19.522 0-35.404-15.883-35.404-35.404a8.17 8.17 0 0 0-8.17-8.17H40.851a8.17 8.17 0 0 0-8.17 8.17v251.93c0 21.107 17.173 38.28 38.281 38.28h370.077c21.107 0 38.28-17.173 38.28-38.28V221.79a8.17 8.17 0 0 0-8.17-8.171zm-8.17 260.101c0 12.097-9.842 21.94-21.941 21.94H70.962c-12.098 0-21.941-9.842-21.941-21.94V229.96h101.432c3.927 24.664 25.347 43.574 51.1 43.574h108.894c25.754 0 47.173-18.91 51.1-43.574H462.98v243.76zM95.319 197.279a8.17 8.17 0 0 0 8.17-8.17v-13.617H408.51v13.617a8.17 8.17 0 0 0 8.17 8.17 8.17 8.17 0 0 0 8.17-8.17V8.17A8.17 8.17 0 0 0 416.68 0H95.319a8.17 8.17 0 0 0-8.17 8.17v180.939a8.17 8.17 0 0 0 8.17 8.17zM408.511 16.34v142.811H103.489V16.34h305.022zM62.638 197.279a8.17 8.17 0 0 0 8.17-8.17v-43.574c0-4.512-3.657-8.17-8.17-8.17s-8.17 3.658-8.17 8.17v43.574a8.17 8.17 0 0 0 8.17 8.17zM449.362 197.279a8.17 8.17 0 0 0 8.17-8.17v-43.574a8.17 8.17 0 0 0-8.17-8.17 8.17 8.17 0 0 0-8.17 8.17v43.574a8.168 8.168 0 0 0 8.17 8.17z"/><path d="M221.155 70.809a8.17 8.17 0 0 0 8.17-8.17v-2.723h18.505v55.662h-2.723a8.17 8.17 0 0 0-8.17 8.17 8.17 8.17 0 0 0 8.17 8.17h21.787a8.17 8.17 0 0 0 8.17-8.17 8.17 8.17 0 0 0-8.17-8.17h-2.723V59.915h18.948v2.723c0 4.512 3.657 8.17 8.17 8.17s8.17-3.658 8.17-8.17V51.745a8.17 8.17 0 0 0-8.17-8.17h-70.134a8.17 8.17 0 0 0-8.17 8.17v10.894a8.169 8.169 0 0 0 8.17 8.17z"/></svg>