<svg viewBox="0 0 64 64" xmlns="http://www.w3.org/2000/svg"><g fill="none" fill-rule="evenodd"><path d="M44 39c-7.18 0-13-1.344-13-3v8c0 1.656 5.82 3 13 3s13-1.344 13-3v-8c0 1.656-5.82 3-13 3" fill="#67C1B6"/><path d="M44 31c-7.18 0-13-1.344-13-3v8c0 1.656 5.82 3 13 3s13-1.344 13-3v-8c0 1.656-5.82 3-13 3" fill="#67C1B6"/><path d="M44 23c-7.18 0-13-1.344-13-3v8c0 1.656 5.82 3 13 3s13-1.344 13-3v-8c0 1.656-5.82 3-13 3" fill="#67C1B6"/><path d="M57 20c0 1.657-5.82 3-13 3s-13-1.343-13-3 5.82-3 13-3 13 1.343 13 3" fill="#87D6CD"/><path d="M20 49c-7.18 0-13-1.344-13-3v8c0 1.656 5.82 3 13 3s13-1.344 13-3v-8c0 1.656-5.82 3-13 3" fill="#67C1B6"/><path d="M20 41c-7.18 0-13-1.344-13-3v8c0 1.656 5.82 3 13 3s13-1.344 13-3v-8c0 1.656-5.82 3-13 3" fill="#67C1B6"/><path d="M20 33c-7.18 0-13-1.344-13-3v8c0 1.656 5.82 3 13 3s13-1.344 13-3v-8c0 1.656-5.82 3-13 3" fill="#67C1B6"/><path d="M33 30c0 1.657-5.82 3-13 3S7 31.657 7 30s5.82-3 13-3 13 1.343 13 3" fill="#87D6CD"/><path d="M57 20c0 1.657-5.82 3-13 3s-13-1.343-13-3 5.82-3 13-3 13 1.343 13 3z" stroke="#414547" stroke-width="2" stroke-linecap="round" stroke-linejoin="round"/><path d="M33.001 45.6C35.304 46.442 39.369 47 44 47c7.18 0 13-1.342 13-3V20" stroke="#414547" stroke-width="2" stroke-linecap="round" stroke-linejoin="round"/><path d="M32.995 37.598C35.297 38.44 39.365 39 44 39c7.18 0 13-1.342 13-3M32.842 29.54C35.112 30.415 39.26 31 44 31c7.18 0 13-1.343 13-3M31 20v8.401" stroke="#414547" stroke-width="2" stroke-linecap="round" stroke-linejoin="round"/><path d="M33 30c0 1.657-5.82 3-13 3S7 31.657 7 30s5.82-3 13-3 13 1.343 13 3zM33 38c0 1.657-5.82 3-13 3S7 39.657 7 38M33 46c0 1.657-5.82 3-13 3S7 47.657 7 46" stroke="#414547" stroke-width="2" stroke-linecap="round" stroke-linejoin="round"/><path d="M7 30v24c0 1.657 5.82 3 13 3s13-1.343 13-3V30M41.944 13.007C40.18 8.274 36.39 5 32 5c-6.076 0-11 6.268-11 14v4" stroke="#414547" stroke-width="2" stroke-linecap="round" stroke-linejoin="round"/><path stroke="#414547" stroke-width="2" stroke-linecap="round" stroke-linejoin="round" d="m16 18 5 5 5-5"/></g></svg>