<svg fill="#f80" xmlns="http://www.w3.org/2000/svg" width="800" height="800" viewBox="0 0 33.087 33.087" xml:space="preserve"><path d="M6.802 13.924h.007c.25.003.477.15.58.379l1.482 3.288 1.142-1.517a.617.617 0 0 1 .559-.256c.217.015.412.14.518.33l1.939 3.497 1.606-5.947a.643.643 0 0 1 1.192-.13l1.244 2.377 2.316-4.499a.658.658 0 0 1 .666-.344.647.647 0 0 1 .54.521l1.254 6.762 2.903-2.826a.628.628 0 0 1 .574-.17c.206.04.381.182.466.376l.859 1.988 1.407-4.622c.06-.193.215-.314.396-.383.013-.384.029-.766-.012-1.157-.698-6.77-8.258-6.665-11.898-3.399-3.64-3.266-11.195-3.37-11.897 3.399-.164 1.58.133 3.094.711 4.517l.865-1.817a.64.64 0 0 1 .581-.367z"/><path d="M21.883 20.146a.643.643 0 0 1-1.083-.345l-1.13-6.092-2.023 3.927a.642.642 0 0 1-.568.349h-.001a.647.647 0 0 1-.571-.345l-1.058-2.018-1.591 5.893a.647.647 0 0 1-.621.476.64.64 0 0 1-.562-.332l-2.229-4.019-1.2 1.593a.642.642 0 0 1-1.101-.124L6.787 16.1l-.711 1.494c3.192 5.625 10.468 9.468 10.468 9.468s5.849-3.095 9.359-7.791l-.925-2.138-3.095 3.013zM4.637 17.621l-1.6-1.185a.641.641 0 0 0-.621-.083l-2.009.797a.643.643 0 1 0 .473 1.196l1.678-.664 1.94 1.436a.642.642 0 0 0 .964-.24l.612-1.286a12.902 12.902 0 0 1-.719-1.484l-.718 1.513zM32.441 17.105h-1.912l-1.242-3.977a.64.64 0 0 0-.614-.451h-.003c-.081 0-.146.044-.217.072-.076 2.377-1.104 4.584-2.55 6.521l.262.604c.106.248.353.419.627.387a.647.647 0 0 0 .58-.455l1.309-4.303.763 2.438a.64.64 0 0 0 .614.451h2.385a.645.645 0 0 0 .645-.645.646.646 0 0 0-.647-.642z"/></svg>