<svg height="20" width="20" xmlns="http://www.w3.org/2000/svg" viewBox="0 0 512 512" xml:space="preserve"><path style="fill:#000" d="M408.387 512H159.603c-8.313 0-15.054-6.741-15.054-15.054v-71.829c0-8.313 6.741-15.054 15.054-15.054h132.043c8.313 0 15.054 6.741 15.054 15.054s-6.741 15.054-15.054 15.054H174.657v41.722h218.676v-41.722h-28.605c-8.313 0-15.054-6.741-15.054-15.054s6.741-15.054 15.054-15.054h43.659c8.313 0 15.054 6.741 15.054 15.054v71.829c0 8.314-6.741 15.054-15.054 15.054z"/><path style="fill:#f80" d="M302.481 198.013v-15.951c0-15.948-13.009-29.53-29.728-30.096-17.553-.595-31.979 12.793-31.979 29.391v17.213l-.333-154.106c0-16.243-13.813-29.411-30.854-29.411H208.4c-17.039 0-30.854 13.168-30.854 29.411V257.49l-30.02-73.097c-5.281-15.769-22.984-24.465-39.527-19.431-16.543 5.043-25.665 21.909-20.384 37.684l65.918 135.745c8.141 16.765 25.756 27.5 45.137 27.509l177.423.077c27.491.012 49.783-21.226 49.786-47.432l.018-116.556c0-16.243-13.813-29.411-30.854-29.411-17.039 0-30.854 13.168-30.854 29.411V195c0-16.243-13.813-29.411-30.854-29.411-17.039 0-30.854 13.168-30.854 29.411"/><path style="fill:#000" d="M376.115 381.032h-.03l-177.421-.077c-25.033-.012-48.062-14.139-58.672-35.988L74.073 209.223a14.96 14.96 0 0 1-.733-1.796c-3.788-11.308-2.854-23.391 2.625-34.022 5.684-11.03 15.502-19.142 27.643-22.843 24.074-7.325 49.967 5.457 58.011 28.529l.872 2.121V44.463C162.492 19.946 183.087 0 208.4 0h1.186c25.313 0 45.907 19.946 45.907 44.464l.206 95.206a47.277 47.277 0 0 1 17.56-2.75c15.338.521 28.625 8.286 36.537 19.916 6.886-3.998 14.939-6.3 23.537-6.3 13.886 0 26.35 6 34.776 15.465 7.569-5.329 16.88-8.475 26.933-8.475 25.313 0 45.908 19.946 45.908 44.464l-.02 116.557c-.001 16.832-6.84 32.616-19.255 44.442-12.21 11.636-28.39 18.043-45.56 18.043zM101.658 197.106l65.415 134.711c5.612 11.555 18.016 19.027 31.602 19.033l177.42.077h.018c9.403 0 18.208-3.455 24.794-9.731 6.393-6.091 9.914-14.134 9.916-22.648l.02-116.556c0-7.914-7.089-14.354-15.801-14.354s-15.799 6.44-15.799 14.357c0 8.313-6.741 15.054-15.054 15.054s-15.054-6.741-15.054-15.054v-6.991c0-7.917-7.089-14.357-15.8-14.357-8.712 0-15.801 6.44-15.801 14.357v3.011c0 8.313-6.741 15.054-15.054 15.054s-15.054-6.741-15.054-15.054v-15.953c.002-8.015-6.81-14.768-15.185-15.051-4.622-.178-8.943 1.45-12.123 4.522-2.768 2.675-4.293 6.165-4.293 9.824v17.213c0 8.308-6.731 15.045-15.037 15.054h-.017c-8.302 0-15.036-6.719-15.054-15.022l-.333-154.104c0-7.948-7.087-14.39-15.799-14.39H208.4c-8.712 0-15.8 6.44-15.8 14.357v213.028a15.054 15.054 0 0 1-28.979 5.719l-30.02-73.098a13.744 13.744 0 0 1-.349-.939c-2.708-8.087-12.073-12.487-20.869-9.809-4.295 1.308-7.726 4.092-9.654 7.834-1.602 3.104-1.973 6.592-1.071 9.906z"/></svg>