<svg xmlns="http://www.w3.org/2000/svg" width="1600" height="1600" viewBox="0 0 1200 1200"><path d="M737.01 736.911c0-58.675 27.851-105.327 73.583-125.456 45.755-20.127 97.322-9.304 137.159 27.016 12.781 11.631 23.948 17.223 35.618 11.782 11.974-5.593 13.932-26.09 13.932-38.83V392.795c0-29.219-21.701-50.099-50.937-50.099H731.973c-71.501 0-87.435-60.241-50.853-101.678 60.227-68.228 27.961-173.726-81.624-178.304-109.573 4.562-141.828 109.889-81.61 178.121 36.577 41.456 20.657 101.857-50.844 101.857H255.813c-29.22 0-53.114 20.88-53.114 50.1v690.543c0 29.224 23.895 53.952 53.114 53.952h690.542c29.237 0 50.938-24.728 50.938-53.952V866.134c0-12.741-2.916-34.182-15.123-39.869-12.125-5.646-26.427.246-39.347 12.028-39.677 36.194-88.268 46.263-133.528 26.342-45.497-20.037-72.294-67.152-72.294-126.004l.009-1.72Z" style="fill:#f2bae4"/></svg>