<svg xmlns="http://www.w3.org/2000/svg" width="973" height="347" preserveAspectRatio="xMidYMid"><path fill="#3E99E5" d="M688 180h267v32H688v-32Zm-667 0h267v32H21v-32Z"/><path fill="#3B9EE4" d="M688 135h267v32H688v-32Zm-667 0h267v32H21v-32Z"/><path fill="#4391E7" d="M355 270h267v31H355v-31Z"/><path fill="#4095E6" d="M688 225h267v31H688v-31Z"/><path fill="#38A2E3" d="M688 90h267v31H688V90Z"/><path fill="#36A7E2" d="M355 45h267v31H355V45ZM21 45h267v31H21V45Z"/><path fill="#33ABE1" d="M21 0h267v31H21V0Z"/><path fill="#4193E7" d="M688 270h232v31H688v-31Z"/><path fill="#34A9E1" d="M688 45h232v31H688V45Z"/><path fill="#4391E7" d="M355 315h197v31H355v-31Zm69-90h197v31H424v-31Z"/><path fill="#36A7E2" d="M355 90h197v31H355V90Zm69-90h197v31H424V0Z"/><path fill="#3F97E6" d="M424 180h163v32H424v-32Z"/><path fill="#3AA0E3" d="M389 135h163v32H389v-32Z"/><path fill="#4193E7" d="M688 315h163v31H688v-31Z"/><path fill="#2FB2DF" d="M688 0h163v31H688V0Z"/><path fill="#4095E6" d="M21 315h128v31H21v-31Z"/><path fill="#3E99E5" d="M21 270h128v31H21v-31Z"/><path fill="#3B9EE4" d="M21 225h128v31H21v-31Z"/><path fill="#33ABE1" d="M21 90h128v31H21V90Z"/></svg>