<svg xmlns="http://www.w3.org/2000/svg" width="843" height="835"><path fill="#6A4CF2" d="m315.775-.275 3.54-.015c3.852-.014 7.704-.013 11.556-.01l6.015-.01c6.3-.011 12.6-.012 18.9-.006 6.482.006 12.965-.006 19.448-.027 5.582-.018 11.163-.024 16.745-.02 3.327.001 6.654-.003 9.98-.015 3.713-.013 7.424-.006 11.136.006l3.309-.023c7.034.048 12.962.68 18.776 5.024 5.41 6.17 9.147 13.007 13.008 20.195 3.011 5.597 6.216 11.073 9.437 16.551a2570.63 2570.63 0 0 1 17.518 30.394c1.224 2.15 2.47 4.29 3.738 6.415 1.537 2.65 2.773 5.313 3.938 8.145 3.564 8.2 3.564 8.2 10.3 13.639 6.38 1.559 12.922 1.158 19.436.959 2.194-.005 4.387-.002 6.581.007a694.63 694.63 0 0 0 14.13-.135c7.451-.144 14.9-.17 22.353-.18 10.449-.027 20.896-.11 31.344-.239a6387.818 6387.818 0 0 1 34.208-.34c11.042-.08 22.084-.136 33.126-.182 7.404-.034 14.807-.106 22.21-.208 4.608-.06 9.216-.094 13.824-.124 2.133-.02 4.266-.049 6.399-.09 19.483-.366 19.483-.366 25.842 5.007 2.036 2.22 3.654 4.335 5.096 6.987l1.744 3.12 1.776 3.325a4349.8 4349.8 0 0 0 2.924 5.265c.994 1.79 1.98 3.586 2.964 5.382 2.884 5.213 5.902 10.344 8.924 15.478 5.468 9.35 10.9 18.72 16.298 28.111a1711.737 1711.737 0 0 0 8.827 15.208c1.042 1.77 2.08 3.543 3.117 5.316 1.301 2.221 2.609 4.439 3.924 6.652 8.956 15.338 8.956 15.338 7.498 24.373-1.317 4.643-3.697 8.684-6.101 12.84l-1.65 2.933A863.27 863.27 0 0 1 773 248l-1.304 2.252c-1.965 3.382-3.954 6.75-5.954 10.111-4.01 6.754-7.917 13.568-11.827 20.38-3.024 5.265-6.06 10.519-9.16 15.737a2089.466 2089.466 0 0 0-4.234 7.17 766.264 766.264 0 0 1-3.037 5.074l-1.828 3.112-1.63 2.736c-1.193 2.3-1.193 2.3-.859 4.437 1.02 2.44 2.203 4.702 3.501 7.007l1.685 3.003c.606 1.066 1.21 2.133 1.835 3.231l1.902 3.373c5.363 9.48 10.84 18.891 16.348 28.287a3034.706 3034.706 0 0 1 11 18.965 1398877794.708 1398877794.708 0 0 1 5.67 9.843 432791.108 432791.108 0 0 1 15.016 26.032l20.626 35.75a658323916.874 658323916.874 0 0 0 5.603 9.713 20326.915 20326.915 0 0 0 11.79 20.418l3.847 6.656A2950.92 2950.92 0 0 1 837 500l1.503 2.601 1.364 2.395 1.183 2.064c2.4 4.902 3.049 10.657 1.304 15.87-3.14 6.959-6.908 13.531-10.729 20.132l-2.146 3.732a4278.957 4278.957 0 0 1-15.251 26.254 4035.406 4035.406 0 0 0-12.915 22.264l-1.895 3.283a3989.191 3989.191 0 0 0-8.668 15.092l-1.513 2.64c-.916 1.598-1.829 3.199-2.738 4.801-4.081 7.107-7.55 12.053-15.499 14.872-3.649.532-7.232.508-10.914.454l-3.225.002c-3.496-.003-6.99-.034-10.486-.065a4205.098 4205.098 0 0 1-26.453-.116c-6.522-.041-13.044-.06-19.567-.08-12.785-.043-25.57-.11-38.355-.195l-.92 2.846c-1.019 2.975-2.209 5.38-3.81 8.076l-1.66 2.816-1.797 3.012-3.829 6.492-1.998 3.382c-3.175 5.397-6.3 10.824-9.423 16.251l-3.778 6.555-1.894 3.288c-3.128 5.429-6.26 10.855-9.391 16.282l-3.75 6.5-37.5 65c-.93 1.61-.93 1.61-1.877 3.254-1.242 2.153-2.485 4.305-3.728 6.456a2829.206 2829.206 0 0 0-8.688 15.126 3851.649 3851.649 0 0 1-3.05 5.344c-1.275 2.229-2.544 4.46-3.81 6.695-10.45 18.255-10.45 18.255-19.997 21.214-2.402.47-4.628.543-7.076.551l-3.037.018-3.314.003-3.505.015c-3.83.015-7.661.022-11.492.027l-5.97.013c-5.547.012-11.094.02-16.64.023-7.157.004-14.314.022-21.47.05-5.543.023-11.085.033-16.628.034-3.305.001-6.61.008-9.915.025-3.693.017-7.386.015-11.08.008l-3.282.028c-7.1-.039-14.01-.62-19.855-5.01-4.6-5.729-8.258-11.84-11.836-18.249l-2.957-5.21c-1.016-1.79-2.028-3.582-3.04-5.375-3.127-5.536-6.319-11.036-9.503-16.54l-3.715-6.438-1.87-3.242c-1.654-2.867-3.306-5.736-4.958-8.604l-3.05-5.298c-1.271-2.205-2.54-4.411-3.81-6.617l-1.757-3.051-1.52-2.64L358 746l-.75-2.45c-1.324-3.376-2.478-5.173-5.25-7.55-6.672-2.037-14.169-1.287-21.057-1.18-2.188-.002-4.376-.008-6.564-.019-5.94-.017-11.88.028-17.82.082-6.215.045-12.43.032-18.646.024-10.437-.005-20.874.022-31.312.076a10043.749 10043.749 0 0 1-34.206.125c-11.026.022-22.053.031-33.08.037-7.403.005-14.806.03-22.209.072-4.603.024-9.206.036-13.81.046-2.135.007-4.271.02-6.407.037-2.914.024-5.828.03-8.742.031l-2.564.036c-5.808-.025-9.99-1.088-14.487-5.04-4.493-5.243-7.878-10.766-11.158-16.827-1.14-2.06-2.28-4.118-3.422-6.176l-1.76-3.182c-2.786-4.985-5.676-9.906-8.568-14.83a2588.032 2588.032 0 0 1-16.193-28.076 1778.708 1778.708 0 0 0-11.085-19.24l-1.963-3.35c-1.229-2.092-2.46-4.183-3.695-6.273l-1.654-2.814c-.48-.812-.96-1.623-1.453-2.46C57.038 621.401 57.198 615.303 58 609c1.784-4.74 4.249-8.93 6.875-13.25.7-1.195 1.396-2.392 2.09-3.59a591.545 591.545 0 0 1 4.155-7.029 635.824 635.824 0 0 0 4.575-7.744 966.648 966.648 0 0 1 4.657-7.907c4.048-6.82 7.997-13.7 11.945-20.579 3.086-5.376 6.19-10.738 9.367-16.061l1.71-2.898a470.357 470.357 0 0 1 3.21-5.357l1.416-2.417 1.25-2.085c1.006-2.793.633-4.263-.25-7.083-1.262-2.64-1.262-2.64-2.887-5.332l-1.822-3.13-1.978-3.35a3134.644 3134.644 0 0 0-7.307-12.476c-2.658-4.524-5.3-9.056-7.943-13.587l-1.72-2.94c-4.842-8.294-9.607-16.63-14.362-24.973a2811.427 2811.427 0 0 0-15.764-27.279c-6.155-10.524-12.24-21.087-18.326-31.65-3.128-5.43-6.26-10.856-9.391-16.283a566017.461 566017.461 0 0 1-10.594-18.362 141639.852 141639.852 0 0 1-13.19-22.855C.503 325.219-.525 321.5 0 315c2.454-7.899 6.629-14.92 10.813-22l3.017-5.17c1.037-1.775 2.077-3.549 3.118-5.322 3.214-5.486 6.38-10.998 9.552-16.508l3.742-6.484c2.53-4.384 5.055-8.77 7.578-13.157 2.503-4.352 5.014-8.699 7.532-13.043 2.437-4.207 4.845-8.429 7.234-12.664L56 214.687l1.526-2.749C61.196 205.586 64.815 201.395 72 199a74.437 74.437 0 0 1 4.499-.12l2.792-.004 3.055.01h3.223c3.523 0 7.045.009 10.568.016l7.318.005c6.427.003 12.853.013 19.28.024 6.555.01 13.11.015 19.665.02 12.867.01 25.733.028 38.6.049l.884-2.788c1.319-3.796 3.225-7.05 5.304-10.462.907-1.516 1.813-3.033 2.718-4.55l1.5-2.511c2.973-5.016 5.873-10.073 8.782-15.127a355984714.511 355984714.511 0 0 1 5.856-10.167c3.15-5.467 6.303-10.93 9.456-16.395 3.764-6.522 7.526-13.045 11.285-19.57a5512.287 5512.287 0 0 1 18.153-31.305A2692.65 2692.65 0 0 0 260 60a3053.437 3053.437 0 0 1 20.484-35.407 808.866 808.866 0 0 0 4.176-7.241l2.34-4.04 1.938-3.386C296.007-.103 304.52-.3 315.775-.274Z"/><path fill="#F9F9FE" d="M306 22h2l1.247 2.19c7.779 13.655 15.588 27.29 23.524 40.856 4.969 8.495 9.904 17.01 14.797 25.549 2.908 5.068 5.842 10.11 8.893 15.093l1.595 2.639c.976 1.61 1.965 3.21 2.972 4.801l1.288 2.142 1.14 1.83c1.02 3.56-1.182 6.375-2.81 9.493l-1.552 2.766-1.738 3.104-1.856 3.287-1.92 3.414a1069.8 1069.8 0 0 1-11.69 20.251c-4.907 8.276-9.694 16.62-14.495 24.956-6.46 11.213-12.928 22.42-19.395 33.629l457 1c-7.26 14.52-15.652 28.533-23.96 42.472-5.102 8.578-10.045 17.245-14.957 25.934a190.267 190.267 0 0 1-3.866 6.503c-1.743 2.966-2.79 5.802-3.77 9.095-2.21 6.254-4.878 11.181-10.447 14.996-12.404 3.783-26.19 2.665-39.011 2.453-5.452-.068-10.903-.02-16.356.013-10.67.046-21.336-.013-32.005-.11-12.424-.107-24.846-.11-37.27-.108-22.832 0-45.662-.104-68.493-.258-20.84-.14-41.68-.21-62.52-.212h-2.01l-4.013-.001c-25.157-.003-50.313-.063-75.47-.158-8.662-.032-17.324-.046-25.987-.056-10.55-.013-21.1-.06-31.65-.151-5.384-.046-10.767-.077-16.152-.07-4.926.006-9.85-.03-14.777-.098a301.44 301.44 0 0 0-5.353-.006c-13.36.091-13.36.091-17.285-3.225-1.562-2.298-2.641-4.432-3.648-7.013l-1.652-2.752-1.286-2.314-1.499-2.681-1.563-2.815a1457.18 1457.18 0 0 0-13.875-24.25 3545.442 3545.442 0 0 1-16.411-28.29c-2.946-5.134-5.912-10.251-8.968-15.32a1402.805 1402.805 0 0 1-4.276-7.166 512.46 512.46 0 0 0-3.075-5.05l-1.836-3.1-1.647-2.72c-.912-2.542-.912-2.542-.24-5.05L201 205l1.262-2.501 1.425-2.64 1.601-2.965L207 193.75l1.78-3.276c3.623-6.635 7.335-13.202 11.207-19.693 4.01-6.73 7.886-13.536 11.763-20.344a2989.7 2989.7 0 0 1 17.032-29.502c6.155-10.525 12.241-21.088 18.327-31.653 3.128-5.429 6.26-10.855 9.391-16.282a57519.958 57519.958 0 0 0 17.314-30.023c1.148-1.991 2.299-3.98 3.452-5.968a654.956 654.956 0 0 0 3.656-6.432c.624-1.1 1.248-2.2 1.89-3.335l1.708-3.043L306 22ZM594.106 328.64l3.2-.013 3.51.032h3.695c3.345 0 6.69.016 10.034.037 3.496.019 6.991.02 10.486.024 6.62.01 13.239.034 19.858.064 7.535.033 15.071.05 22.607.065 15.501.031 31.003.084 46.504.151l1.666 2.92 2.184 3.827 1.095 1.92a563.908 563.908 0 0 0 7.43 12.646c9.433 15.642 18.554 31.463 27.67 47.292 3.148 5.467 6.302 10.93 9.455 16.395a346151.525 346151.525 0 0 1 5.625 9.75l22.502 39.004 3.728 6.46a16804.258 16804.258 0 0 1 11.739 20.368c1.27 2.205 2.54 4.411 3.808 6.617 3.264 5.665 6.582 11.284 10.03 16.84C822 515 822 515 822 517c-14.69.398-29.379.697-44.073.88-6.824.088-13.645.207-20.467.402a902.41 902.41 0 0 1-19.762.33c-2.51.032-5.02.093-7.528.185-19.168.675-19.168.675-24.19-3.46-3.338-4.028-5.402-8.453-7.209-13.333-1.018-2.646-2.4-5.002-3.88-7.414-.881-1.55-1.762-3.101-2.641-4.652A2219.92 2219.92 0 0 0 679 467a2724.698 2724.698 0 0 1-16.29-28.246c-1.73-3.042-3.473-6.076-5.233-9.102l-1.151-1.985c-.997-1.718-1.997-3.433-2.998-5.147C652 420 652 420 652 418c-4.314 3.661-6.521 8.27-9.125 13.188-.985 1.825-1.972 3.649-2.96 5.472l-1.492 2.75c-1.986 3.615-4.065 7.17-6.173 10.715a1968.617 1968.617 0 0 0-12.625 21.625l-1.954 3.389c-3.928 6.819-7.837 13.649-11.734 20.486-4.785 8.394-9.641 16.745-14.518 25.087-6.219 10.644-12.375 21.324-18.528 32.006-3.128 5.429-6.26 10.855-9.391 16.282l-3.75 6.5-52.5 91a530470768.413 530470768.413 0 0 1-5.623 9.746 25830.6 25830.6 0 0 0-9.412 16.324 5512.287 5512.287 0 0 1-18.153 31.305A2685.168 2685.168 0 0 0 459 750a2929.833 2929.833 0 0 1-16.75 29.01 4277.11 4277.11 0 0 0-13.625 23.49l-1.016 1.763L422 814c-2.27-2.764-4.392-5.429-6.086-8.582l-1.108-2.035-1.181-2.195c-3.99-7.298-8.107-14.512-12.313-21.688a3569.372 3569.372 0 0 1-16.67-28.741 862.686 862.686 0 0 0-9.736-16.56l-1.986-3.314a616.126 616.126 0 0 0-3.793-6.235l-1.69-2.826-1.503-2.466c-1.18-2.978-.918-4.333.066-7.358 1.177-2.482 1.177-2.482 2.668-5.113l1.685-2.994 1.834-3.205 1.903-3.36c5.372-9.458 10.847-18.855 16.347-28.238a3038.309 3038.309 0 0 0 11-18.965l1.885-3.269L409 637c7.282-12.643 14.57-25.281 21.937-37.875A2685.167 2685.167 0 0 0 446 573a2991.846 2991.846 0 0 1 16.786-29.071c9.936-16.995 19.732-34.07 29.491-51.166a3966.68 3966.68 0 0 1 20.946-36.275 3494.395 3494.395 0 0 0 21.021-36.407 3639.285 3639.285 0 0 1 15.324-26.619c1.022-1.757 2.043-3.514 3.063-5.272 7.568-13.034 15.216-26.013 23.004-38.917a967.382 967.382 0 0 0 4.006-6.742l1.244-2.103a774.736 774.736 0 0 0 2.263-3.85c4.72-7.958 4.72-7.958 10.958-7.939ZM79 219c14.63-.21 29.259-.369 43.89-.466 6.793-.047 13.586-.11 20.379-.213 6.555-.1 13.11-.152 19.665-.175 2.502-.017 5.003-.049 7.504-.098a529.64 529.64 0 0 1 10.508-.07l3.136-.098c6.886.089 6.886.089 9.852 3.053 1.556 2.297 2.838 4.581 4.066 7.067a532.152 532.152 0 0 0 2.281 3.973c.743 1.361 1.482 2.725 2.219 4.09 3.952 7.212 8.03 14.34 12.188 21.437a4209.95 4209.95 0 0 1 14.75 25.375l1.885 3.271 3.786 6.572c3.128 5.429 6.26 10.855 9.391 16.282a432791.108 432791.108 0 0 1 5.625 9.75l37.5 65 3.748 6.496a25830.6 25830.6 0 0 1 9.412 16.324 5512.287 5512.287 0 0 0 18.152 31.305c5.422 9.27 10.765 18.583 16.082 27.913a2811.427 2811.427 0 0 0 15.764 27.279c6.156 10.527 12.244 21.093 18.33 31.66 1.867 3.238 3.736 6.474 5.606 9.71 7.165 12.403 14.329 24.807 21.401 37.262 3.237 5.697 6.503 11.37 9.849 17.004l1.87 3.19a454.246 454.246 0 0 0 3.529 5.914l1.546 2.658 1.374 2.3c.988 3.1.178 4.382-1.288 7.235a183.657 183.657 0 0 1-2.766 5.113l-1.675 2.994-1.809 3.206-1.889 3.36c-5.34 9.466-10.802 18.86-16.298 28.237a3050.81 3050.81 0 0 0-11 18.965l-1.86 3.225a7102.122 7102.122 0 0 0-8.828 15.348 9242.498 9242.498 0 0 1-4.13 7.195c-.973 1.693-1.942 3.388-2.91 5.083l-1.788 3.11-1.568 2.736L355 711l-1.057 2.122c-3.05 2.948-6.491 2.415-10.504 2.359l-2.68.01c-2.977.007-5.952-.015-8.928-.037a3463.029 3463.029 0 0 1-23.752-.049c-6.046-.024-12.092-.027-18.137-.032-11.454-.012-22.907-.045-34.36-.085-13.038-.045-26.075-.067-39.113-.087-26.823-.042-53.646-.112-80.469-.201 1.479-3.791 3.175-7.237 5.203-10.77l1.95-3.404 2.097-3.639 2.176-3.79a3689.841 3689.841 0 0 1 15.269-26.292c5.911-10.111 11.716-20.282 17.516-30.457l1.848-3.074c1.415-2.452 2.243-4.483 3.157-7.23 1.64-4.248 3.074-7.58 6.784-10.344 8.112-2.71 17.294-1.764 25.719-1.586 2.544.004 5.089.001 7.633-.007 6-.005 11.998.052 17.998.14 6.834.096 13.668.112 20.503.122 14.05.022 28.098.143 42.147.331a19237.047 19237.047 0 0 0-8.214-14.818c-4.603-8.31-9.294-16.556-14.15-24.721-3.325-5.603-6.57-11.253-9.824-16.899l-1.933-3.355-3.923-6.812c-3.15-5.467-6.303-10.93-9.456-16.395l-3.75-6.5-1.875-3.25-7.5-13-3.748-6.496a25830.6 25830.6 0 0 1-9.412-16.324 5521.124 5521.124 0 0 0-18.153-31.305c-5.74-9.816-11.395-19.68-17.028-29.558a6821.143 6821.143 0 0 0-19.175-33.35c-3.122-5.404-6.24-10.81-9.359-16.217l-1.873-3.246c-3.14-5.44-6.277-10.882-9.412-16.324a5512.287 5512.287 0 0 0-18.153-31.305c-5.422-9.27-10.765-18.584-16.082-27.915a2670.308 2670.308 0 0 0-15.676-27.106c-5.302-9.068-10.514-18.186-15.712-27.315l-1.9-3.336-1.84-3.232c-2.482-4.317-5.029-8.595-7.587-12.867C79 221 79 221 79 219Z"/></svg>