<svg version="1.0" xmlns="http://www.w3.org/2000/svg" width="800" height="800" viewBox="0 0 64 64" xml:space="preserve"><path d="M34 31.011h29a1 1 0 0 0 1-1c0-16.568-13.432-30-30-30a1 1 0 0 0-1 1v29a1 1 0 0 0 1 1zm1-28.975c14.667.516 26.459 12.307 26.975 26.975H35V2.036zM63 33.011H36c-.044 0-.082.019-.125.024-.084.011-.168.019-.248.05-.078.031-.143.084-.209.133-.036.027-.079.041-.112.072l-.005.008a.99.99 0 0 0-.203.295c-.004.009-.014.016-.018.025-.016.038-.015.084-.026.125-.023.084-.051.169-.052.256l-.002.012c0 .053.022.1.031.152.012.074.016.148.044.219.035.088.092.16.149.233.021.028.031.063.057.089l.01.01.004.004 19.918 20.506C60.643 49.795 64 42.295 64 34.011a1 1 0 0 0-1-1zm-7.874 19.365-16.77-17.365h23.618a27.873 27.873 0 0 1-6.848 17.365z"/><path d="M31.615 34.302c-.603-.604-.615-1.686-.615-1.686V5.011a1 1 0 0 0-1-1c-16.568 0-30 13.432-30 30s13.432 30 30 30c8.284 0 15.784-3.357 21.213-8.787l-1.335-1.335c-.02-.027-17.282-18.607-18.263-19.587zM30 62.011c-15.464 0-28-12.536-28-28C2 18.882 14 6.563 29 6.036v26.975c0 .907.343 1.81 1.016 2.482s18.332 19.658 18.332 19.658A27.878 27.878 0 0 1 30 62.011z"/><path fill="#f80" d="M30 62.011c-15.464 0-28-12.536-28-28C2 18.882 14 6.563 29 6.036v26.975c0 .907.343 1.81 1.016 2.482s18.332 19.658 18.332 19.658A27.878 27.878 0 0 1 30 62.011z"/><path fill="#ff0" d="M35 2.036c14.667.516 26.459 12.307 26.975 26.975H35V2.036z"/><path fill="red" d="m55.126 52.376-16.77-17.365h23.618a27.873 27.873 0 0 1-6.848 17.365z"/></svg>