<svg viewBox="0 0 32 32" fill="none" xmlns="http://www.w3.org/2000/svg"><ellipse cx="10.5" cy="10" rx="8.5" ry="8" fill="#184AA9"/><circle cx="22" cy="22" r="8" fill="#2173F0"/><circle cx="16" cy="16" r="13" fill="url(#a)"/><path d="M16.069 9c2.113 0 4.931 1 4.227 2.333-.963 1.823-2.818 0-4.227 0-1.41 0-2.114.667-2.114 1.334 0 .666.353 1.333 2.114 2C17.829 15.333 21 16.333 21 19c0 2.667-2.466 4-5.636 4-2.84 0-4.93-1.333-4.227-2.667.81-1.533 2.818.334 4.227.334 1.41 0 2.818-.334 2.818-1.667s-2.113-1.667-3.522-2.333c-1.761-.834-3.523-1.667-3.523-4C11.137 10.333 13.955 9 16.07 9z" fill="#fff"/><defs><linearGradient id="a" x1="5.889" y1="8.056" x2="25.389" y2="24.306" gradientUnits="userSpaceOnUse"><stop stop-color="#297AC0"/><stop offset="1" stop-color="#48B0F9"/></linearGradient></defs></svg>