<svg xmlns="http://www.w3.org/2000/svg" width="1080" height="1080" fill="none"><path d="M0 0h1080v1080H0z"/><path fill="url(#a)" d="M127.423 563.417c5.412 4.661 13.381 11.126 25.56 13.532 15.185 3.007 27.815-2.105 33.077-4.511 8.57 10.374 35.634 40.144 81.191 49.617 33.379 7.066 60.442-.301 69.163-3.008 8.419-2.556 31.724-10.675 53.375-30.822 30.071-27.966 52.924-75.177 44.354-127.049-9.021-54.879-48.263-85.25-57.134-91.715 2.706-2.406 6.465-6.014 10.525-10.525 2.857-3.308 16.238-18.644 25.56-43.602 2.706-7.217 7.818-21.35 9.021-40.596 2.105-33.528-9.472-58.938-15.035-70.666-5.263-11.126-10.826-19.846-15.036-25.56-14.584 3.759-35.032 9.773-58.637 19.546-29.319 12.179-82.995 38.19-135.318 88.709-17.291 16.689-33.529 32.626-49.617 58.637-19.696 31.875-28.717 62.096-33.078 82.695-5.112 4.661-13.08 12.93-18.042 25.56-6.014 15.185-4.51 28.417-3.007 40.595 1.503 11.427 5.864 46.008 33.078 69.163Z"/><path fill="url(#b)" d="M770.935 267.221c-66.005-55.481-134.115-78.635-175.914-88.709-80.89-19.546-148.699-11.126-185.686-3.759 16.689 21.952 23.305 42.55 26.312 54.879 12.63 52.774-8.721 96.076-15.035 108.255-7.518 14.584-15.788 25.409-21.802 32.326 8.57 7.367 20.298 18.944 30.823 35.333 5.262 8.269 15.787 24.958 21.049 49.616 5.413 25.26 2.556 46.46 0 58.638-4.21 19.696-11.727 34.882-18.042 45.106 9.923-1.654 24.507-3.458 42.099-3.007 53.526 1.353 93.219 21.801 109.758 31.574 10.675 6.315 35.032 21.802 58.638 49.617a231.953 231.953 0 0 1 39.091 64.652c6.015 15.035 17.892 49.466 16.539 93.219-.451 12.63-4.21 91.866-66.155 154.864-5.413 5.563-28.567 28.417-66.156 46.609-39.994 19.396-76.53 23.756-98.481 24.806a420.824 420.824 0 0 0 57.134 0c12.179-.9 36.987-3.15 67.659-10.52 20.899-4.96 62.096-16.691 109.006-42.853 36.687-20.448 63.299-42.249 79.688-57.134 15.486-13.983 38.64-36.987 61.644-69.163 17.592-24.507 28.868-45.707 34.582-57.134 11.878-23.756 19.997-45.557 25.56-63.148 3.909-12.329 10.525-35.784 15.035-66.156.902-6.164 4.06-28.868 4.511-55.63 1.052-65.555-15.186-120.133-19.546-133.815-35.935-114.87-114.269-183.281-132.311-198.466Z"/><path fill="url(#c)" d="M982.933 304.809c-12.028-41.949-47.812-73.974-92.467-83.446 1.052-20.749-.602-56.383-23.305-86.453-39.092-51.872-125.395-67.66-208.991-30.071-14.284-29.62-33.078-39.092-40.596-42.099-41.798-16.99-104.946 12.179-144.339 79.687 46.91-1.503 121.035 2.707 201.474 37.589 52.924 23.004 90.061 51.12 108.254 66.155 20.298 16.84 61.495 53.827 97.73 112.765 19.846 32.326 32.476 61.946 40.595 84.198 10.525-5.413 28.868-16.689 43.603-37.588 3.608-5.263 33.077-48.264 18.042-100.737Z"/><path fill="url(#d)" d="M540.143 794.209c7.216 5.413 30.972 21.952 64.651 21.05 44.054-1.203 70.817-30.973 75.177-36.085-.451-11.728-2.105-28.567-7.518-48.113-21.35-76.53-80.138-116.223-88.708-121.786-8.42-5.564-56.984-36.386-123.29-34.582-12.329.301-22.703 1.654-30.07 3.007 12.178 2.406 30.07 7.368 48.864 18.795 54.428 32.927 68.562 89.911 70.666 99.233 9.022 38.791.301 70.365-1.503 76.68-2.706 9.021-5.864 16.539-8.269 21.801Z"/><path fill="url(#e)" d="M301.832 906.222c-18.794-50.067-8.269-93.82-4.51-108.254 3.608-13.983 8.269-25.259 12.028-33.078-4.36-3.007-69.914-47.06-136.07-17.29-30.07 13.531-47.211 36.535-54.879 48.864 25.711 47.512 55.18 81.041 76.68 102.241 61.194 60.141 127.199 88.708 168.396 102.235 32.928 10.83 62.246 15.94 84.649 18.65-17.591-2.26-43.753-8.27-71.117-24.659-12.028-7.217-54.578-33.679-75.177-88.709Z"/><path fill="#fff" stroke="#fff" stroke-linejoin="round" stroke-miterlimit="10" d="M300.329 558.154c41.934 0 75.928-33.994 75.928-75.928s-33.994-75.929-75.928-75.929-75.929 33.995-75.929 75.929c0 41.934 33.995 75.928 75.929 75.928Z"/><path fill="url(#f)" d="M300.329 525.377c23.832 0 43.151-19.319 43.151-43.151 0-23.832-19.319-43.151-43.151-43.151-23.832 0-43.152 19.319-43.152 43.151 0 23.832 19.32 43.151 43.152 43.151Z"/><path fill="#fff" d="M323.634 460.425c-1.354-1.504-12.029-13.081-27.966-11.878-9.623.752-21.35 6.014-25.71 16.388-.752 1.654-4.511 11.577 1.052 18.043 3.759 4.36 9.472 4.51 10.525 4.51 5.262 0 10.224-2.706 12.78-6.615 3.458-5.563 0-9.924 2.255-14.434 1.955-3.909 8.119-7.518 27.064-6.014Z"/><path fill="url(#g)" d="M516.086 310.071c27.214 35.784 100.135-27.514 181.928 9.021 55.781 24.959 74.575 77.733 114.268 70.667 18.945-3.459 32.176-18.494 40.144-30.221-33.979-51.271-69.914-82.695-81.491-92.317-66.005-55.481-134.115-78.635-175.913-88.709-28.868-6.916-55.932-10.374-80.59-11.577-.301 4.059-.752 10.525-1.353 18.343-4.661 74.275-7.067 111.562 3.007 124.793Z"/><path fill="url(#h)" d="M649.9 553.644c-3.007-7.067-15.787-33.98-43.602-49.617-22.703-12.78-35.483-7.066-64.652-15.035-47.361-13.081-51.872-42.4-79.687-45.106-4.661-.451-9.473-.451-14.284-.151 1.053 3.609 2.105 7.368 3.007 11.427 5.413 25.26 2.556 46.459 0 58.638-4.21 19.696-11.727 34.882-18.042 45.106 9.923-1.654 24.507-3.458 42.099-3.007 53.525 1.353 93.219 21.801 109.758 31.574 10.675 6.315 35.032 21.801 58.637 49.617a123.07 123.07 0 0 1 5.864 7.217c11.126-29.921 13.081-62.547.902-90.663Z"/><path fill="url(#i)" d="M877.686 784.436c11.878-23.756 19.997-45.557 25.56-63.148 3.909-12.329 10.524-35.784 15.035-66.156.902-6.164 4.06-28.868 4.511-55.63 1.052-65.554-15.186-120.133-19.546-133.815l-.451-1.353c-5.714 20.749-14.885 41.046-28.868 59.239-43.452 56.383-107.503 60.442-111.262 100.737-3.608 39.843 56.834 54.578 78.184 112.765 15.938 43.753 2.105 90.813-16.839 129.153 6.314-7.517 12.629-15.787 19.094-24.658a469.201 469.201 0 0 0 34.582-57.134Z"/><path fill="url(#j)" d="M735.602 929.527c-1.955-9.923-8.871-22.403-19.546-27.064-21.2-9.321-44.805 16.84-78.936 42.701-1.503 1.503-3.007 3.157-4.51 4.661-5.413 5.563-28.567 28.417-66.156 46.609-39.994 19.396-76.53 23.756-98.481 24.806a420.824 420.824 0 0 0 57.134 0c12.179-.9 36.987-3.15 67.659-10.52 20.899-4.96 62.096-16.691 109.006-42.853a455.448 455.448 0 0 0 31.875-19.546c2.256-5.713 3.308-11.727 1.955-18.794Z"/><path fill="url(#k)" d="M226.505 567.927c-9.472 7.518-16.99 16.99-21.049 27.365-.602 1.353-1.053 2.556-1.353 3.909-.451 1.203-.902 3.007-1.353 4.51-.752 3.008-1.504 5.714-1.955 8.42-.902 5.413-.601 10.525.902 15.036 1.504 4.51 4.511 8.57 8.721 12.028 6.765 5.262 14.433 7.367 16.087 7.818 6.165 1.504 10.826 1.353 18.494 1.053 8.42-.301 12.329-1.504 23.906-1.805h11.728c3.909 0 7.968.151 12.028.602 8.119.601 16.388 1.804 24.207 4.21 7.968 2.405 15.486 6.315 21.651 11.276 6.014 5.112 10.825 11.126 13.682 17.892 1.503 3.458 2.405 6.917 2.706 10.525.451 3.609.15 7.067-.451 10.525s-1.654 6.916-3.157 10.073c-1.654 3.308-3.91 6.315-6.917 8.871-.751.602-1.503 1.203-2.405 1.805-.752.601-1.654 1.052-2.556 1.503-1.805.902-3.759 1.504-5.714 1.955a32.434 32.434 0 0 1-12.028.451c-5.563-.752-9.472-2.857-10.976-3.759-5.412-3.157-8.119-7.067-7.968-7.217.15-.15 2.856 3.759 8.419 6.465 1.353.602 5.263 2.406 10.675 2.707 3.759.15 7.368-.301 10.826-1.354 1.654-.601 3.308-1.202 4.811-2.105.752-.451 1.504-.902 2.105-1.353.601-.451 1.353-1.052 1.804-1.654 4.661-4.51 6.465-10.825 6.917-17.14.451-6.315-.752-12.329-3.759-17.742-3.007-5.412-7.518-10.224-12.931-13.982a51.83 51.83 0 0 0-18.493-7.669c-13.532-3.007-28.417-2.105-43.452-.751-10.675.902-10.675 2.255-21.801 3.307-11.728 1.203-18.344 1.805-27.214.301-12.029-2.105-20.599-7.066-24.809-9.773-3.759-2.556-7.367-5.413-10.374-8.871-3.007-3.307-5.563-7.066-7.367-11.126-3.759-7.969-4.661-16.388-4.361-24.056.151-3.91.602-7.668 1.203-11.126.301-1.805.451-3.308.902-5.263.301-1.954.902-3.759 1.353-5.713 4.361-15.036 13.232-28.868 25.26-40.295l.15-.15c6.165-5.864 16.689-6.315 23.455-1.053 6.917 5.263 7.368 14.284 1.353 20.148-.15.601-.601.902-.902 1.202Z"/><defs><linearGradient id="f" x1="254.993" x2="309.247" y1="383.927" y2="501.632" gradientUnits="userSpaceOnUse"><stop stop-color="#9E60FC"/><stop offset=".928" stop-color="#45239B"/></linearGradient><linearGradient id="g" x1="552.655" x2="703.165" y1="419.152" y2="240.046" gradientUnits="userSpaceOnUse"><stop offset=".506" stop-color="#FFBF4F"/><stop offset="1" stop-color="#F58E54"/></linearGradient><linearGradient id="h" x1="584.846" x2="482.499" y1="507.989" y2="608.831" gradientUnits="userSpaceOnUse"><stop offset=".185" stop-color="#FFBF4F"/><stop offset="1" stop-color="#F58E54"/></linearGradient><linearGradient id="i" x1="762.449" x2="922.78" y1="665.245" y2="665.245" gradientUnits="userSpaceOnUse"><stop offset=".236" stop-color="#FFBF4F"/><stop offset="1" stop-color="#F58E54"/></linearGradient><linearGradient id="j" x1="715.073" x2="556.251" y1="853.292" y2="1035.79" gradientUnits="userSpaceOnUse"><stop offset=".103" stop-color="#FFBF4F"/><stop offset=".893" stop-color="#F58E54"/></linearGradient><linearGradient id="k" x1="173.741" x2="355.15" y1="634.85" y2="634.85" gradientUnits="userSpaceOnUse"><stop offset=".185" stop-color="#FFBF4F"/><stop offset="1" stop-color="#F58E54"/></linearGradient><radialGradient id="a" cx="0" cy="0" r="1" gradientTransform="translate(540.047 540.065) scale(590.889)" gradientUnits="userSpaceOnUse"><stop stop-color="#9E60FC"/><stop offset="1" stop-color="#45239B"/></radialGradient><radialGradient id="b" cx="0" cy="0" r="1" gradientTransform="translate(540.047 540.065) scale(590.889)" gradientUnits="userSpaceOnUse"><stop stop-color="#9E60FC"/><stop offset="1" stop-color="#45239B"/></radialGradient><radialGradient id="c" cx="0" cy="0" r="1" gradientTransform="translate(540.047 540.065) scale(590.889)" gradientUnits="userSpaceOnUse"><stop stop-color="#9E60FC"/><stop offset="1" stop-color="#45239B"/></radialGradient><radialGradient id="d" cx="0" cy="0" r="1" gradientTransform="translate(540.047 540.065) scale(590.889)" gradientUnits="userSpaceOnUse"><stop stop-color="#9E60FC"/><stop offset="1" stop-color="#45239B"/></radialGradient><radialGradient id="e" cx="0" cy="0" r="1" gradientTransform="translate(540.047 540.065) scale(590.889)" gradientUnits="userSpaceOnUse"><stop stop-color="#9E60FC"/><stop offset="1" stop-color="#45239B"/></radialGradient></defs></svg>