<svg fill="#f80" height="800" width="800" xmlns="http://www.w3.org/2000/svg" viewBox="0 0 418.684 418.684" xml:space="preserve"><path d="M387.5 79.342H31.184C13.989 79.342 0 93.331 0 110.525v54.633c0 17.195 13.989 31.184 31.184 31.184H387.5c17.195 0 31.184-13.989 31.184-31.184v-54.633c0-17.194-13.989-31.183-31.184-31.183zM101.684 181.341h-70.5C22.26 181.342 15 174.082 15 165.158v-54.633c0-8.924 7.26-16.184 16.184-16.184h70.5v87zm302-16.183c0 8.924-7.26 16.184-16.184 16.184H116.684v-87H387.5c8.924 0 16.184 7.26 16.184 16.184v54.632z"/><path d="M43.184 169.342a7.5 7.5 0 0 0 7.5-7.5c0-4.687 3.813-8.5 8.5-8.5 4.687 0 8.5 3.813 8.5 8.5a7.5 7.5 0 0 0 15 0c0-6.176-2.4-11.797-6.309-15.996 3.911-4.199 6.309-9.826 6.309-16.004 0-12.958-10.542-23.5-23.5-23.5s-23.5 10.542-23.5 23.5c0 6.179 2.409 11.796 6.322 15.995-3.915 4.199-6.322 9.823-6.322 16.005a7.5 7.5 0 0 0 7.5 7.5zm16-48c4.687 0 8.5 3.813 8.5 8.5 0 4.687-3.813 8.5-8.5 8.5-4.687 0-8.5-3.813-8.5-8.5 0-4.687 3.813-8.5 8.5-8.5zM291.184 114.342c-12.958 0-23.5 10.542-23.5 23.5s10.542 23.5 23.5 23.5 23.5-10.542 23.5-23.5-10.542-23.5-23.5-23.5zm0 32c-4.687 0-8.5-3.813-8.5-8.5s3.813-8.5 8.5-8.5 8.5 3.813 8.5 8.5-3.813 8.5-8.5 8.5zM163.184 114.342c-12.958 0-23.5 10.542-23.5 23.5s10.542 23.5 23.5 23.5 23.5-10.542 23.5-23.5-10.542-23.5-23.5-23.5zm0 32c-4.687 0-8.5-3.813-8.5-8.5s3.813-8.5 8.5-8.5 8.5 3.813 8.5 8.5-3.813 8.5-8.5 8.5zM355.184 114.342c-12.958 0-23.5 10.542-23.5 23.5s10.542 23.5 23.5 23.5 23.5-10.542 23.5-23.5-10.542-23.5-23.5-23.5zm0 32c-4.687 0-8.5-3.813-8.5-8.5s3.813-8.5 8.5-8.5 8.5 3.813 8.5 8.5-3.813 8.5-8.5 8.5zM227.184 114.342c-12.958 0-23.5 10.542-23.5 23.5s10.542 23.5 23.5 23.5 23.5-10.542 23.5-23.5-10.542-23.5-23.5-23.5zm0 32c-4.687 0-8.5-3.813-8.5-8.5s3.813-8.5 8.5-8.5 8.5 3.813 8.5 8.5-3.813 8.5-8.5 8.5zM387.5 222.342H31.184C13.989 222.342 0 236.331 0 253.525v54.633c0 17.195 13.989 31.184 31.184 31.184H387.5c17.195 0 31.184-13.989 31.184-31.184v-54.633c0-17.194-13.989-31.183-31.184-31.183zM101.684 324.341h-70.5C22.26 324.342 15 317.082 15 308.158v-54.633c0-8.924 7.26-16.184 16.184-16.184h70.5v87zm302-16.183c0 8.924-7.26 16.184-16.184 16.184H116.684v-87H387.5c8.924 0 16.184 7.26 16.184 16.184v54.632z"/><path d="M163.183 257.342c-12.958 0-23.5 10.542-23.5 23.5s10.542 23.5 23.5 23.5 23.5-10.542 23.5-23.5-10.542-23.5-23.5-23.5zm0 32c-4.687 0-8.5-3.813-8.5-8.5s3.813-8.5 8.5-8.5c4.687 0 8.5 3.813 8.5 8.5s-3.813 8.5-8.5 8.5zM227.183 257.342c-12.958 0-23.5 10.542-23.5 23.5s10.542 23.5 23.5 23.5 23.5-10.542 23.5-23.5-10.542-23.5-23.5-23.5zm0 32c-4.687 0-8.5-3.813-8.5-8.5s3.813-8.5 8.5-8.5c4.687 0 8.5 3.813 8.5 8.5s-3.813 8.5-8.5 8.5zM291.183 257.342c-12.958 0-23.5 10.542-23.5 23.5s10.542 23.5 23.5 23.5 23.5-10.542 23.5-23.5-10.542-23.5-23.5-23.5zm0 32c-4.687 0-8.5-3.813-8.5-8.5s3.813-8.5 8.5-8.5 8.5 3.813 8.5 8.5-3.813 8.5-8.5 8.5zM45.184 318.658h32a7.5 7.5 0 0 0 7.5-7.5v-26.633a7.5 7.5 0 0 0-7.5-7.5h-24.5v-10.5c0-4.687 3.813-8.5 8.5-8.5s8.5 3.813 8.5 8.5a7.5 7.5 0 0 0 15 0c0-12.958-10.542-23.5-23.5-23.5s-23.5 10.542-23.5 23.5v44.633a7.5 7.5 0 0 0 7.5 7.5zm7.5-26.633h17v11.633h-17v-11.633z"/></svg>