<svg height="800" width="800" xmlns="http://www.w3.org/2000/svg" viewBox="0 0 345.576 345.576" xml:space="preserve"><path style="fill:#4f3124" d="M94.087 186.886s-43.815 37.372-43.815 63.945c0 36.179 25.569 74.817 40.311 81.27h56.851V198.378l-53.347-11.492zM251.489 186.886s43.815 37.372 43.815 63.945c0 36.179-25.569 74.817-40.311 81.27h-56.851V198.378l53.347-11.492z"/><path style="fill:#946b50" d="M127.155 341.213c.059-.623.092-1.253.092-1.892v-5.201c0-10.967-8.891-19.857-19.858-19.857H88.005c-10.967 0-19.858 8.891-19.858 19.857v5.201c0 .639.033 1.269.092 1.892h58.916z"/><path style="fill:#a3785a" d="M117.957 332.1H70.203a5.674 5.674 0 0 0-5.674 5.674v7.801h6.82v-.026h45.461v.026h6.82v-7.801a5.672 5.672 0 0 0-5.673-5.674z"/><path style="fill:#694d39" d="M67.164 345.55v-5.46a2.825 2.825 0 0 0-5.652 0v5.46h5.652z"/><path style="fill:#946b50" d="M218.42 341.213a19.713 19.713 0 0 1-.092-1.892v-5.201c0-10.967 8.891-19.857 19.857-19.857h19.386c10.967 0 19.857 8.891 19.857 19.857v5.201c0 .639-.033 1.269-.092 1.892H218.42z"/><path style="fill:#a3785a" d="M227.618 332.1h47.754a5.674 5.674 0 0 1 5.674 5.674v7.801h-6.82v-.026h-45.461v.026h-6.82v-7.801a5.673 5.673 0 0 1 5.673-5.674z"/><path style="fill:#946b50" d="M218.42 341.213a19.713 19.713 0 0 1-.092-1.892v-5.201c0-10.967 8.891-19.857 19.857-19.857h19.386c10.967 0 19.857 8.891 19.857 19.857v5.201c0 .639-.033 1.269-.092 1.892H218.42z"/><path style="fill:#a3785a" d="M227.618 332.1h47.754a5.674 5.674 0 0 1 5.674 5.674v7.801h-6.82v-.026h-45.461v.026h-6.82v-7.801a5.673 5.673 0 0 1 5.673-5.674z"/><path style="fill:#694d39" d="M278.411 345.55v-5.46a2.825 2.825 0 0 1 5.652 0v5.46h-5.652z"/><path style="fill:#8f684e" d="M204.192 341.238c.059-.623.092-1.253.092-1.891v-5.201c0-10.968-8.891-19.858-19.858-19.858H165.04c-10.967 0-19.858 8.891-19.858 19.858v5.201c0 .638.033 1.268.092 1.891h58.918z"/><path style="fill:#a17658" d="M200.394 339.902a5.675 5.675 0 0 1-5.674 5.674h-47.754a5.674 5.674 0 0 1-5.674-5.674V337.8a5.673 5.673 0 0 1 5.674-5.673h47.754a5.674 5.674 0 0 1 5.674 5.673v2.102z"/><path style="fill:#694d39" d="M146.944 345.381v-5.459a2.826 2.826 0 0 0-5.652 0v5.459h5.652z"/><g><path style="fill:#8f684e" d="M141.384 341.238a20.038 20.038 0 0 1-.092-1.891v-5.201c0-10.968 8.891-19.858 19.858-19.858h19.385c10.968 0 19.858 8.891 19.858 19.858v5.201c0 .638-.033 1.268-.093 1.891h-58.916z"/><path style="fill:#a17658" d="M145.182 339.902a5.674 5.674 0 0 0 5.673 5.674h47.754a5.674 5.674 0 0 0 5.674-5.674V337.8a5.673 5.673 0 0 0-5.674-5.673h-47.754a5.673 5.673 0 0 0-5.673 5.673v2.102z"/><path style="fill:#694d39" d="M198.632 345.381v-5.459a2.826 2.826 0 0 1 5.651 0v5.459h-5.651z"/></g><g><ellipse transform="rotate(-23.752 130.565 15.173)" style="fill:#613c2c" cx="130.569" cy="15.176" rx="16.776" ry="14.842"/><ellipse transform="rotate(-23.752 130.562 15.173)" style="fill:#785136" cx="130.569" cy="15.176" rx="11.024" ry="9.754"/><g><ellipse transform="rotate(-66.247 215.005 15.175)" style="fill:#613c2c" cx="215.007" cy="15.176" rx="14.843" ry="16.776"/><ellipse transform="rotate(-66.247 215.007 15.174)" style="fill:#785136" cx="215.007" cy="15.176" rx="9.754" ry="11.025"/></g></g><path style="fill:#613c2c" d="M261.93 219.833c0 87.986-39.91 125.717-89.142 125.717s-89.142-37.73-89.142-125.717c0-87.986 39.91-206.092 89.142-206.092 49.232-.001 89.142 118.105 89.142 206.092z"/><path style="opacity:.8;fill:#784d2f" d="M229.866 102.663c0-47.768-25.555-68.252-57.079-68.252s-57.079 20.483-57.079 68.252c0 47.768 45.733 111.887 57.079 111.887 11.347 0 57.079-64.12 57.079-111.887z"/><path style="fill:#4f3124" d="M172.788 12.661c-25.462 0-62.24 13.75-62.24 34.856 0 21.104 33.39 62.996 62.24 62.996 28.849 0 62.24-41.892 62.24-62.996 0-21.106-36.779-34.856-62.24-34.856z"/><path style="fill:#856148" d="M187.953 92.768c0 16.083-6.79 22.979-15.166 22.979s-15.165-6.896-15.165-22.979 6.789-37.671 15.165-37.671 15.166 21.588 15.166 37.671z"/><path style="fill:#a17558" d="M184.061 93.878c.126-1.312.2-2.703.2-4.205 0-13.264-5.137-31.066-11.473-31.066s-11.473 17.803-11.473 31.066c0 1.502.075 2.894.201 4.205h22.545z"/><g><path style="fill:#332a24" d="M172.788 89.467c-7.988 0-11.698 3.614-11.698 3.614s7.911 10.855 11.698 11.045c3.787-.189 11.698-11.045 11.698-11.045s-3.709-3.614-11.698-3.614z"/><path style="fill:#424140" d="M172.788 91.29c6.868 0 10.644 1.354 11.694 1.796l.004-.005s-3.709-3.614-11.698-3.614c-7.988 0-11.698 3.614-11.698 3.614l.003.005c1.051-.443 4.827-1.796 11.695-1.796z"/></g><g><path style="fill:#a6795a" d="M168.298 341.213c.059-.623.092-1.253.092-1.892v-5.201c0-10.967-8.891-19.857-19.858-19.857h-19.385c-10.967 0-19.858 8.891-19.858 19.857v5.201c0 .639.033 1.269.092 1.892h58.917z"/><path style="fill:#b88764" d="M162.716 332.1h-47.753a5.674 5.674 0 0 0-5.674 5.674v7.801h6.82v-.026h45.461v.026h6.82v-7.801a5.675 5.675 0 0 0-5.674-5.674z"/><path style="fill:#694d39" d="M122.776 345.55v-5.46a2.825 2.825 0 0 0-5.652 0v5.46h5.652zM135.368 345.55v-5.46a2.825 2.825 0 0 0-5.652 0v5.46h5.652zM147.961 345.55v-5.46a2.825 2.825 0 0 0-5.652 0v5.46h5.652zM160.554 345.55v-5.46a2.825 2.825 0 0 0-5.652 0v5.46h5.652z"/><g><path style="fill:#a17558" d="M236.195 341.213c.059-.623.092-1.253.092-1.892v-5.201c0-10.967-8.891-19.857-19.858-19.857h-19.385c-10.967 0-19.858 8.891-19.858 19.857v5.201c0 .639.033 1.269.093 1.892h58.916z"/><path style="fill:#b88764" d="M230.613 332.1H182.86a5.674 5.674 0 0 0-5.674 5.674v7.801h6.82v-.026h45.461v.026h6.82v-7.801a5.674 5.674 0 0 0-5.674-5.674z"/><path style="fill:#694d39" d="M190.674 345.55v-5.46a2.825 2.825 0 0 0-5.652 0v5.46h5.652zM203.267 345.55v-5.46a2.825 2.825 0 0 0-5.652 0v5.46h5.652zM215.859 345.55v-5.46a2.825 2.825 0 1 0-5.651 0v5.46h5.651zM228.451 345.55v-5.46a2.825 2.825 0 1 0-5.651 0v5.46h5.651z"/></g></g><g><ellipse transform="rotate(-24.502 146.45 55.79)" style="fill:#332a24" cx="146.435" cy="55.785" rx="7.223" ry="11.436"/><circle style="fill:#63412a" cx="146.002" cy="55.881" r="4.538"/><circle style="fill:#ad723f" cx="144.635" cy="54.466" r="1.827"/><g><ellipse transform="scale(-1) rotate(24.502 256.937 -917.16)" style="fill:#332a24" cx="199.141" cy="55.785" rx="7.223" ry="11.435"/><circle style="fill:#63412a" cx="199.573" cy="55.881" r="4.538"/><circle style="fill:#ad723f" cx="198.206" cy="54.466" r="1.827"/></g></g><path style="opacity:.1;fill:#ffce99" d="M172.788 12.661c-8.053 0-17.238 1.377-26.034 3.926.544-2.721.325-5.541-.831-8.168-3.302-7.503-12.853-10.56-21.333-6.828-8.48 3.732-12.678 12.839-9.376 20.342 1.31 2.978 3.614 5.241 6.436 6.672-6.749 5.26-11.102 11.65-11.102 18.912 0 5.591 2.344 12.642 6.326 19.985-17.097 35.669-28.995 83.893-32.295 128.217-12.886 12.672-34.308 36.53-34.308 55.111 0 25.417 12.62 52.031 25.239 67.863a19.81 19.81 0 0 0-7.28 13.766 5.672 5.672 0 0 0-3.676 4.826c-.072-.006-.142-.022-.216-.022a2.825 2.825 0 0 0-2.826 2.825v5.46h3.018v.026h6.82v-.026h37.938v.026h6.82v-.026h.703v.026h6.82v-.026h22.824c.169.015.338.026.511.026h25.822V12.661z"/></svg>